<svg width="164px" height="40px" viewBox="0 0 164 40" version="1.1" xmlns="http://www.w3.org/2000/svg" xmlns:xlink="http://www.w3.org/1999/xlink">
            <title>livewall logo</title>
            <g id="Design" stroke="none" stroke-width="1" fill="none" fill-rule="evenodd">
              <g id="Header_section" transform="translate(-120.000000, -40.000000)" fill="#FFFFFF">
                <path d="M264.68555,40 C273.96311,40 281.762269,46.3425633 284,54.9364212 L283.984199,55.0064 L281.804599,63.8432 C281.782244,63.9328004 281.743123,63.9776 281.687236,63.9776 C281.631348,63.9776 281.58105,63.9328004 281.536341,63.8432 L281.536341,63.8432 L279.323208,55.04 C279.233788,54.6815982 279.010241,54.5024 278.652561,54.5024 L278.652561,54.5024 L274.695748,54.5024 C274.516908,54.5024 274.366015,54.5527995 274.243062,54.6536 C274.12011,54.7544005 274.047457,54.8831992 274.025102,55.04 L274.025102,55.04 L271.946099,63.776 C271.923744,63.8656004 271.879034,63.9104 271.811969,63.9104 C271.744904,63.9104 271.700195,63.8656004 271.67784,63.776 L271.67784,63.776 L269.732966,55.0064 C269.710611,54.8495992 269.637958,54.7208005 269.515006,54.62 C269.392053,54.5191995 269.241159,54.4688 269.06232,54.4688 L269.06232,54.4688 L264.568989,54.4688 C264.21131,54.4688 264.032472,54.6143985 264.032472,54.9056 C264.032472,54.9952004 264.04365,55.0735997 264.066005,55.1408 L264.066005,55.1408 L268.827593,71.336 C268.917013,71.6720017 269.14056,71.84 269.49824,71.84 L269.49824,71.84 L274.058634,71.84 C274.237474,71.84 274.388368,71.7896005 274.511321,71.6888 C274.634273,71.5879995 274.706926,71.4592008 274.729281,71.3024 L274.729281,71.3024 L276.506493,63.8432 C276.551203,63.7311994 276.60709,63.6752 276.674155,63.6752 C276.74122,63.6752 276.785929,63.7311994 276.808284,63.8432 L276.808284,63.8432 L278.92082,71.336 C279.01024,71.6720017 279.233786,71.84 279.591466,71.84 L279.591466,71.84 L280.773054,71.8405852 C277.139573,76.7889325 271.286799,80 264.68555,80 C253.662106,80 244.725839,71.045695 244.725839,60 C244.725839,48.954305 253.662106,40 264.68555,40 Z M261.568646,48.32 L257.209445,48.32 C257.030605,48.32 256.8853,48.3759994 256.773525,48.488 C256.66175,48.6000006 256.605863,48.7455991 256.605863,48.9248 L256.605863,48.9248 L256.605863,71.2352 C256.605863,71.4144009 256.66175,71.5599994 256.773525,71.672 C256.8853,71.7840006 257.030605,71.84 257.209445,71.84 L257.209445,71.84 L261.568646,71.84 C261.747485,71.84 261.892791,71.7840006 262.004566,71.672 C262.116341,71.5599994 262.172227,71.4144009 262.172227,71.2352 L262.172227,71.2352 L262.172227,48.9248 C262.172227,48.7455991 262.116341,48.6000006 262.004566,48.488 C261.892791,48.3759994 261.747485,48.32 261.568646,48.32 L261.568646,48.32 Z M120,71.3024 L120,48.8576 C120,48.4991982 120.178837,48.32 120.536517,48.32 L123.353231,48.32 C123.710911,48.32 123.889748,48.4991982 123.889748,48.8576 L123.889748,68.2784 C123.889748,68.4128007 123.956812,68.48 124.090942,68.48 L135.156606,68.48 C135.514286,68.48 135.693123,68.6591982 135.693123,69.0176 L135.693123,71.3024 C135.693123,71.6608018 135.514286,71.84 135.156606,71.84 L120.536517,71.84 C120.178837,71.84 120,71.6608018 120,71.3024 Z M138.701451,51.8312 C138.231996,51.3719977 137.997272,50.7840036 137.997272,50.0672 C137.997272,49.3503964 138.231996,48.7680022 138.701451,48.32 C139.170906,47.8719978 139.774481,47.648 140.512196,47.648 C141.24991,47.648 141.847897,47.8719978 142.306175,48.32 C142.764452,48.7680022 142.993587,49.3503964 142.993587,50.0672 C142.993587,50.7840036 142.764452,51.3719977 142.306175,51.8312 C141.847897,52.2904023 141.24991,52.52 140.512196,52.52 C139.774481,52.52 139.170906,52.2904023 138.701451,51.8312 Z M138.567322,71.3024 L138.567322,55.208 C138.567322,54.8495982 138.746159,54.6704 139.103839,54.6704 L141.920553,54.6704 C142.278233,54.6704 142.45707,54.8495982 142.45707,55.208 L142.45707,71.3024 C142.45707,71.6608018 142.278233,71.84 141.920553,71.84 L139.103839,71.84 C138.746159,71.84 138.567322,71.6608018 138.567322,71.3024 Z M150.528777,71.4032 L145.230672,55.2752 C145.208317,55.2079997 145.197139,55.1296004 145.197139,55.04 C145.197139,54.7935988 145.353622,54.6704 145.666592,54.6704 L148.818629,54.6704 C149.131599,54.6704 149.332791,54.8159985 149.422211,55.1072 L152.607781,66.2624 C152.652491,66.3520004 152.702789,66.3968 152.758676,66.3968 C152.814564,66.3968 152.853684,66.3520004 152.876039,66.2624 L156.061609,55.1408 C156.151029,54.8271984 156.352221,54.6704 156.665191,54.6704 L159.817228,54.704 C159.996068,54.704 160.130196,54.7599994 160.219616,54.872 C160.309036,54.9840006 160.320213,55.1295991 160.253148,55.3088 L154.988575,71.4032 C154.899155,71.6944015 154.697963,71.84 154.384993,71.84 L151.132359,71.84 C150.819389,71.84 150.618197,71.6944015 150.528777,71.4032 Z M171.728386,68.2952 C172.343148,67.9703984 172.840539,67.5280028 173.220574,66.968 C173.332348,66.7887991 173.477654,66.6992 173.656494,66.6992 C173.768269,66.6992 173.868864,66.7327997 173.958284,66.8 L175.567836,68.0768 C175.72432,68.2336008 175.802562,68.3791993 175.802562,68.5136 C175.802562,68.6032004 175.76903,68.7039994 175.701965,68.816 C175.05367,69.8464052 174.170661,70.6527971 173.052912,71.2352 C171.935163,71.8176029 170.64977,72.1088 169.196696,72.1088 C167.430652,72.1088 165.949656,71.6888042 164.753664,70.8488 C163.557672,70.0087958 162.691429,68.8384075 162.15491,67.3376 C161.70781,66.1055938 161.484263,64.7168077 161.484263,63.1712 C161.484263,61.6255923 161.607214,60.4384041 161.853119,59.6096 C162.277864,58.019192 163.116163,56.7536047 164.368042,55.8128 C165.619922,54.8719953 167.140038,54.4016 168.928437,54.4016 C173.10882,54.4016 175.556655,56.697577 176.272014,61.2896 C176.383789,62.0288037 176.46203,62.9471945 176.50674,64.0448 C176.50674,64.4032018 176.327903,64.5824 175.970223,64.5824 L165.575206,64.5824 C165.441076,64.5824 165.374012,64.6495993 165.374012,64.784 C165.374012,65.388803 165.441076,65.8815981 165.575206,66.2624 C165.821111,67.068804 166.290558,67.6959978 166.983563,68.144 C167.676568,68.5920022 168.537222,68.816 169.565551,68.816 C170.392686,68.7935999 171.113623,68.6200016 171.728386,68.2952 Z M166.799135,58.3832 C166.251438,58.7976021 165.876998,59.3743963 165.675803,60.1136 C165.519318,60.5616022 165.429899,61.0319975 165.407544,61.5248 C165.385189,61.6592007 165.441076,61.7264 165.575206,61.7264 L172.315201,61.7264 C172.449331,61.7264 172.516395,61.6592007 172.516395,61.5248 C172.426975,60.8527966 172.359911,60.4496007 172.315201,60.3152 C172.114006,59.5311961 171.717211,58.9096023 171.124804,58.4504 C170.532397,57.9911977 169.789104,57.7616 168.894905,57.7616 C168.045415,57.7616 167.346832,57.9687979 166.799135,58.3832 Z M184.276657,71.3696 L178.24084,48.9248 C178.218485,48.8799998 178.207308,48.8240003 178.207308,48.7568 C178.207308,48.6223993 178.252017,48.5160004 178.341437,48.4376 C178.430857,48.3591996 178.553808,48.32 178.710292,48.32 L181.728201,48.32 C182.041171,48.32 182.231185,48.4767984 182.29825,48.7904 L186.087402,63.9104 C186.109757,64.0000004 186.154466,64.0448 186.221531,64.0448 C186.288596,64.0448 186.333305,64.0000004 186.35566,63.9104 L189.943618,48.7904 C190.010683,48.4767984 190.200697,48.32 190.513667,48.32 L193.531575,48.32 C193.8669,48.32 194.068092,48.4767984 194.135157,48.7904 L197.957841,63.9104 C197.980196,64.0000004 198.024905,64.0448 198.09197,64.0448 C198.159035,64.0448 198.203745,64.0000004 198.2261,63.9104 L201.948186,48.7904 C202.015251,48.4767984 202.205266,48.32 202.518236,48.32 L205.402015,48.32 C205.580855,48.32 205.709394,48.3759994 205.787636,48.488 C205.865879,48.6000006 205.882645,48.7455991 205.837935,48.9248 L200.137441,71.3696 C200.070376,71.6832016 199.869185,71.84 199.53386,71.84 L196.616548,71.84 C196.303579,71.84 196.113564,71.6832016 196.046499,71.3696 L192.156751,55.544 C192.134396,55.4543996 192.089686,55.4096 192.022621,55.4096 C191.955556,55.4096 191.910847,55.4543996 191.888492,55.544 L188.166405,71.3696 C188.09934,71.6832016 187.909326,71.84 187.596356,71.84 L184.880238,71.84 C184.544913,71.84 184.343722,71.6832016 184.276657,71.3696 Z M216.575461,55.1408 C217.659678,55.6336025 218.492389,56.3111957 219.073618,57.1736 C219.654848,58.0360043 219.945459,59.0159945 219.945459,60.1136 L219.945459,71.3024 C219.945459,71.6608018 219.766621,71.84 219.408942,71.84 L216.592227,71.84 C216.234547,71.84 216.05571,71.6608018 216.05571,71.3024 L216.05571,70.4624 C216.05571,70.3727996 216.033356,70.3224001 215.988646,70.3112 C215.943936,70.2999999 215.888049,70.3167998 215.820984,70.3616 C214.613815,71.5264058 213.00428,72.1088 210.992331,72.1088 C209.338062,72.1088 207.980016,71.6832043 206.918154,70.832 C205.856293,69.9807957 205.32537,68.7152084 205.32537,67.0352 C205.32537,65.2879913 205.934534,63.9272049 207.152881,62.9528 C208.371228,61.9783951 210.086947,61.4912 212.300091,61.4912 L215.854516,61.4912 C215.988646,61.4912 216.05571,61.4240007 216.05571,61.2896 L216.05571,60.5168 C216.05571,59.6431956 215.793043,58.9656024 215.267701,58.484 C214.742359,58.0023976 213.965534,57.7616 212.937205,57.7616 C212.15478,57.7616 211.506495,57.9016 210.992331,58.1816 C210.478166,58.4616014 210.131669,58.8479975 209.952829,59.3408 C209.863409,59.6544016 209.662217,59.8000001 209.349247,59.7776 L206.331339,59.408 C206.152499,59.3855999 206.018371,59.3352004 205.928951,59.2568 C205.839531,59.1783996 205.805999,59.0832006 205.828354,58.9712 C206.029549,57.6271933 206.772841,56.5296043 208.058253,55.6784 C209.343665,54.8271957 210.936434,54.4016 212.836608,54.4016 C214.244972,54.4016 215.491244,54.6479975 216.575461,55.1408 Z M214.882079,68.144 C215.664504,67.5615971 216.05571,66.8224045 216.05571,65.9264 L216.05571,64.3808 C216.05571,64.2463993 215.988646,64.1792 215.854516,64.1792 L213.071334,64.1792 C211.88652,64.1792 210.947624,64.4031978 210.25462,64.8512 C209.561615,65.2992022 209.215118,65.9375959 209.215118,66.7664 C209.215118,67.4832036 209.483374,68.037598 210.019894,68.4296 C210.556413,68.821602 211.23823,69.0176 212.065365,69.0176 C213.160759,69.0176 214.099655,68.7264029 214.882079,68.144 Z M223.356174,71.3024 L223.356174,48.8576 C223.356174,48.4991982 223.535011,48.32 223.892691,48.32 L226.709406,48.32 C227.067085,48.32 227.245923,48.4991982 227.245923,48.8576 L227.245923,71.3024 C227.245923,71.6608018 227.067085,71.84 226.709406,71.84 L223.892691,71.84 C223.535011,71.84 223.356174,71.6608018 223.356174,71.3024 Z M231.025493,71.3024 L231.025493,48.8576 C231.025493,48.4991982 231.204331,48.32 231.562011,48.32 L234.378725,48.32 C234.736405,48.32 234.915242,48.4991982 234.915242,48.8576 L234.915242,71.3024 C234.915242,71.6608018 234.736405,71.84 234.378725,71.84 L231.562011,71.84 C231.204331,71.84 231.025493,71.6608018 231.025493,71.3024 Z" id="logo_full_black"></path>
              </g>
            </g>
          </svg>